<?xml version="1.0" encoding="UTF-8" standalone="no"?>
<!-- Generator: Adobe Illustrator 17.0.1, SVG Export Plug-In . SVG Version: 6.00 Build 0)  -->

<svg
   xmlns:dc="http://purl.org/dc/elements/1.1/"
   xmlns:cc="http://creativecommons.org/ns#"
   xmlns:rdf="http://www.w3.org/1999/02/22-rdf-syntax-ns#"
   xmlns:svg="http://www.w3.org/2000/svg"
   xmlns="http://www.w3.org/2000/svg"
   xmlns:sodipodi="http://sodipodi.sourceforge.net/DTD/sodipodi-0.dtd"
   xmlns:inkscape="http://www.inkscape.org/namespaces/inkscape"
   version="1.1"
   x="0px"
   y="0px"
   width="86px"
   height="86px"
   viewBox="0 0 86 86"
   enable-background="new 0 0 86 86"
   xml:space="preserve"
   id="svg2"
   inkscape:version="0.48.4 r9939"
   sodipodi:docname="icon-launcher-people.svg"><metadata
     id="metadata23"><rdf:RDF><cc:Work
         rdf:about=""><dc:format>image/svg+xml</dc:format><dc:type
           rdf:resource="http://purl.org/dc/dcmitype/StillImage" /><dc:title></dc:title></cc:Work></rdf:RDF></metadata><defs
     id="defs21" /><sodipodi:namedview
     pagecolor="#ffffff"
     bordercolor="#666666"
     borderopacity="1"
     objecttolerance="10"
     gridtolerance="10"
     guidetolerance="10"
     inkscape:pageopacity="0"
     inkscape:pageshadow="2"
     inkscape:window-width="1920"
     inkscape:window-height="1010"
     id="namedview19"
     showgrid="false"
     inkscape:zoom="5.4883721"
     inkscape:cx="42.490972"
     inkscape:cy="20.95339"
     inkscape:window-x="0"
     inkscape:window-y="30"
     inkscape:window-maximized="1"
     inkscape:current-layer="svg2" /><g
     id="Layer_2"
     display="none" /><g
     id="Layer_1"><linearGradient
       id="SVGID_1_"
       gradientUnits="userSpaceOnUse"
       x1="0.71710002"
       y1="85.283302"
       x2="73.193901"
       y2="12.8066"><stop
         offset="0"
         style="stop-color:#ff0000;stop-opacity:1;"
         id="stop7" /><stop
         offset="0.40000001"
         style="stop-color:#ffffff;stop-opacity:1;"
         id="stop9" /><stop
         id="stop3777"
         style="stop-color:#ffffff;stop-opacity:0.99386501;"
         offset="0.69999999" /><stop
         offset="1"
         style="stop-color:#ff0000;stop-opacity:1;"
         id="stop11" /></linearGradient><path
       d="M43,0.3C19.418,0.3,0.3,19.418,0.3,43v41.277c0,0.786,0.637,1.423,1.423,1.423H43   c23.585,0,42.7-19.118,42.7-42.7C85.7,19.418,66.585,0.3,43,0.3z"
       id="path13"
       fill="url(#SVGID_1_)"
       style="fill-opacity:1;fill:#ff0000" /><g
       id="g15" /><path
       sodipodi:type="inkscape:offset"
       inkscape:radius="0"
       inkscape:original="M 43 0.3125 C 41.146967 0.3125 39.322047 0.42726993 37.53125 0.65625 C 35.042078 5.4046313 33.046597 14.565433 31.9375 26.09375 C 19.908303 26.594799 9.4874883 28.036551 2.3125 30.03125 C 1.0931963 33.857375 0.39780805 37.915216 0.3125 42.125 C 7.289938 44.36423 18.199395 46.004678 30.96875 46.59375 C 30.98372 62.580677 32.606899 76.732859 35.125 85.6875 L 43 85.6875 C 44.626248 85.6875 46.233558 85.583238 47.8125 85.40625 C 50.294865 76.437348 51.922686 62.414203 51.9375 46.59375 C 66.775363 45.908996 79.102417 43.785195 85.65625 40.96875 C 85.495586 37.554846 84.916406 34.25189 84 31.09375 C 76.976366 28.545274 65.053616 26.680423 50.96875 26.09375 C 49.83611 14.320722 47.759667 5.0003165 45.1875 0.34375 C 45.1771 0.34322307 45.16665 0.34426949 45.15625 0.34375 C 44.438657 0.30789749 43.726504 0.3125 43 0.3125 z "
       style="fill:#ffffff;fill-opacity:1"
       id="path3789"
       d="m 43,0.3125 c -1.853033,0 -3.677953,0.11476993 -5.46875,0.34375 -2.489172,4.7483813 -4.484653,13.909183 -5.59375,25.4375 -12.029197,0.501049 -22.4500117,1.942801 -29.625,3.9375 -1.2193037,3.826125 -1.91469195,7.883966 -2,12.09375 6.977438,2.23923 17.886895,3.879678 30.65625,4.46875 0.01497,15.986927 1.638149,30.139109 4.15625,39.09375 l 7.875,0 c 1.626248,0 3.233558,-0.104262 4.8125,-0.28125 2.482365,-8.968902 4.110186,-22.992047 4.125,-38.8125 14.837863,-0.684754 27.164917,-2.808555 33.71875,-5.625 -0.160664,-3.413904 -0.739844,-6.71686 -1.65625,-9.875 -7.023634,-2.548476 -18.946384,-4.413327 -33.03125,-5 -1.13264,-11.773028 -3.209083,-21.0934335 -5.78125,-25.75 -0.0104,-5.2693e-4 -0.02085,5.1949e-4 -0.03125,0 C 44.438657,0.30789749 43.726504,0.3125 43,0.3125 z" /></g><path
     style="fill:none;stroke:#000000;stroke-width:4.22399998;stroke-linecap:butt;stroke-linejoin:miter;stroke-miterlimit:4;stroke-opacity:1;stroke-dasharray:none"
     d="M 0.57388274,81.961668 C 4.7162987,81.71061 7.4626837,69.015765 7.4626837,69.015765 c 0.696692,-0.764084 0.89168,-0.273907 1.131055,0.105301 l 3.1521183,10.204516 2.510555,-3.76583 2.88714,-23.850284 2.385029,-1.75739 3.684684,-35.414068 0.627641,-0.376584 c -0.04438,-0.355047 0.583258,0.391813 0.583258,0.391813 l 3.263723,34.7712 2.2595,3.765834 1.004222,18.703647 9.665641,0.627633 3.765835,8.28484 2.510558,0 0.753165,-4.393473 1.506332,-3.012674 1.380808,-0.627635 1.558328,-6.815266 c 0.532567,-0.443812 0.907847,0.02915 0.907847,0.02915 l 0.797545,6.409529 1.88292,2.510555 1.380806,2.259508 0.376586,5.021112"
     id="path3712"
     inkscape:connector-curvature="0"
     sodipodi:nodetypes="ccccccccccccccccccccccccc" /></svg>